<svg xmlns="http://www.w3.org/2000/svg" viewBox="0 0 64 64" role="img" aria-labelledby="qfTitle qfDesc">
  <title id="qfTitle">QuickFolio QA Mark</title>
  <desc id="qfDesc">A custom QA monogram with blue and gold gradients on a dark rounded tile.</desc>
  <defs>
    <linearGradient id="qfBlue" x1="10" y1="10" x2="38" y2="46" gradientUnits="userSpaceOnUse">
      <stop offset="0" stop-color="#4ea6a6"/>
      <stop offset="1" stop-color="#1f4f88"/>
    </linearGradient>
    <linearGradient id="qfGold" x1="34" y1="10" x2="54" y2="50" gradientUnits="userSpaceOnUse">
      <stop offset="0" stop-color="#f2d58d"/>
      <stop offset="1" stop-color="#f2a44b"/>
    </linearGradient>
    <filter id="qfShadow" x="-20%" y="-20%" width="140%" height="140%" color-interpolation-filters="sRGB">
      <feDropShadow dx="0" dy="3" stdDeviation="2.4" flood-color="#000000" flood-opacity="0.45"/>
    </filter>
  </defs>
  <rect x="1.5" y="1.5" width="61" height="61" rx="14" fill="#11161d" stroke="#2a3648"/>
  <g filter="url(#qfShadow)">
    <path d="M24 11.8c-7.3 0-13.2 5.9-13.2 13.2S16.7 38.2 24 38.2c2.1 0 4.1-.5 5.9-1.4l3.8 3.9c.8.8 2.1.8 2.9 0 .8-.8.8-2.1 0-2.9L33 34.2c2.6-2.4 4.2-5.8 4.2-9.5 0-7.1-5.8-12.9-12.9-12.9Zm0 4.2a8.8 8.8 0 1 1 0 17.6 8.8 8.8 0 0 1 0-17.6Z" fill="url(#qfBlue)"/>
    <path d="M45.4 12.2a2 2 0 0 1 2 2v23.4h3.2a2 2 0 1 1 0 4h-9.7a2 2 0 1 1 0-4h2.3v-7.2h-6.5a2 2 0 0 1-1.8-2.9l8.4-15.3a2 2 0 0 1 1.7-1Zm-4.5 14.1h4.3v-7.8l-4.3 7.8Z" fill="url(#qfGold)"/>
  </g>
</svg>
